HIERARCHY
ROOT Junyuan_V1:Solving:Hips
{
	OFFSET 0.000000 0.000000 0.000000
	CHANNELS 6 Xposition Yposition Zposition Xrotation Yrotation Zrotation
	JOINT Junyuan_V1:Solving:Spine
	{
		OFFSET 0.000000 -11.180205 2.228564
		CHANNELS 6 Xposition Yposition Zposition Xrotation Yrotation Zrotation
		JOINT Junyuan_V1:Solving:Spine1
		{
			OFFSET 0.000000 -8.682996 1.531049
			CHANNELS 6 Xposition Yposition Zposition Xrotation Yrotation Zrotation
			JOINT Junyuan_V1:Solving:Spine2
			{
				OFFSET 0.000000 -8.783394 0.768450
				CHANNELS 6 Xposition Yposition Zposition Xrotation Yrotation Zrotation
				JOINT Junyuan_V1:Solving:Spine3
				{
					OFFSET 0.000000 -8.816944 0.000000
					CHANNELS 6 Xposition Yposition Zposition Xrotation Yrotation Zrotation
					JOINT Junyuan_V1:Solving:Neck
					{
						OFFSET 0.000000 -11.336071 -1.133605
						CHANNELS 6 Xposition Yposition Zposition Xrotation Yrotation Zrotation
						JOINT Junyuan_V1:Solving:Neck1
						{
							OFFSET 0.000000 -7.643246 -0.668695
							CHANNELS 6 Xposition Yposition Zposition Xrotation Yrotation Zrotation
							JOINT Junyuan_V1:Solving:Head
							{
								OFFSET 0.000000 -7.555870 -1.332303
								CHANNELS 6 Xposition Yposition Zposition Xrotation Yrotation Zrotation
								JOINT Junyuan_V1:Solving:HeadEnd
								{
									OFFSET 0.000000 -9.728081 0.000002
									CHANNELS 6 Xposition Yposition Zposition Xrotation Yrotation Zrotation
									End Site
									{
										OFFSET 0.000000 -9.728081 0.000002
									}
								}
							}
						}
					}
					JOINT Junyuan_V1:Solving:RightShoulder
					{
						OFFSET 0.000000 -8.097195 -5.270916
						CHANNELS 6 Xposition Yposition Zposition Xrotation Yrotation Zrotation
						JOINT Junyuan_V1:Solving:RightArm
						{
							OFFSET -20.762394 -0.000008 0.000000
							CHANNELS 6 Xposition Yposition Zposition Xrotation Yrotation Zrotation
							JOINT Junyuan_V1:Solving:RightForeArm
							{
								OFFSET -29.048946 -0.000008 0.000000
								CHANNELS 6 Xposition Yposition Zposition Xrotation Yrotation Zrotation
								JOINT Junyuan_V1:Solving:RightHand
								{
									OFFSET -22.031235 -0.000008 0.000000
									CHANNELS 6 Xposition Yposition Zposition Xrotation Yrotation Zrotation
									JOINT Junyuan_V1:Solving:RightHandThumb1
									{
										OFFSET -3.579254 2.890213 -2.661497
										CHANNELS 6 Xposition Yposition Zposition Xrotation Yrotation Zrotation
										End Site
										{
											OFFSET -5.229485 0.000000 -5.277840
										}
									}
									JOINT Junyuan_V1:Solving:RightHandMiddle1
									{
										OFFSET -9.544678 -0.000004 0.061184
										CHANNELS 6 Xposition Yposition Zposition Xrotation Yrotation Zrotation
										End Site
										{
											OFFSET -7.429878 -0.000004 0.000000
										}
									}
								}
							}
						}
					}
					JOINT Junyuan_V1:Solving:LeftShoulder
					{
						OFFSET 0.000000 -8.097195 -5.270916
						CHANNELS 6 Xposition Yposition Zposition Xrotation Yrotation Zrotation
						JOINT Junyuan_V1:Solving:LeftArm
						{
							OFFSET 20.762394 -0.000008 0.000000
							CHANNELS 6 Xposition Yposition Zposition Xrotation Yrotation Zrotation
							JOINT Junyuan_V1:Solving:LeftForeArm
							{
								OFFSET 29.048946 -0.000008 0.000000
								CHANNELS 6 Xposition Yposition Zposition Xrotation Yrotation Zrotation
								JOINT Junyuan_V1:Solving:LeftHand
								{
									OFFSET 22.031235 -0.000008 0.000000
									CHANNELS 6 Xposition Yposition Zposition Xrotation Yrotation Zrotation
									JOINT Junyuan_V1:Solving:LeftHandThumb1
									{
										OFFSET 3.579254 2.890213 -2.661497
										CHANNELS 6 Xposition Yposition Zposition Xrotation Yrotation Zrotation
										End Site
										{
											OFFSET 5.229485 0.000000 -5.277840
										}
									}
									JOINT Junyuan_V1:Solving:LeftHandMiddle1
									{
										OFFSET 9.544678 -0.000004 0.061184
										CHANNELS 6 Xposition Yposition Zposition Xrotation Yrotation Zrotation
										End Site
										{
											OFFSET 7.429878 -0.000004 0.000000
										}
									}
								}
							}
						}
					}
				}
			}
		}
	}
	JOINT Junyuan_V1:Solving:RightUpLeg
	{
		OFFSET -10.825166 0.000000 0.000000
		CHANNELS 6 Xposition Yposition Zposition Xrotation Yrotation Zrotation
		JOINT Junyuan_V1:Solving:RightLeg
		{
			OFFSET 0.000000 43.678444 -0.000006
			CHANNELS 6 Xposition Yposition Zposition Xrotation Yrotation Zrotation
			JOINT Junyuan_V1:Solving:RightFoot
			{
				OFFSET 0.000000 36.488441 -0.000006
				CHANNELS 6 Xposition Yposition Zposition Xrotation Yrotation Zrotation
				JOINT Junyuan_V1:Solving:RightForeFoot
				{
					OFFSET 0.000000 3.967834 -0.000000
					CHANNELS 6 Xposition Yposition Zposition Xrotation Yrotation Zrotation
					JOINT Junyuan_V1:Solving:RightToeBase
					{
						OFFSET 0.000000 0.000000 -15.539299
						CHANNELS 6 Xposition Yposition Zposition Xrotation Yrotation Zrotation
						JOINT Junyuan_V1:Solving:RightToeBaseEnd
						{
							OFFSET 0.000000 0.000000 -3.486985
							CHANNELS 6 Xposition Yposition Zposition Xrotation Yrotation Zrotation
							End Site
							{
								OFFSET 0.000000 -3.486992 0.000000
							}
						}
					}
				}
			}
		}
	}
	JOINT Junyuan_V1:Solving:LeftUpLeg
	{
		OFFSET 10.825166 0.000000 0.000000
		CHANNELS 6 Xposition Yposition Zposition Xrotation Yrotation Zrotation
		JOINT Junyuan_V1:Solving:LeftLeg
		{
			OFFSET 0.000000 43.678444 -0.000006
			CHANNELS 6 Xposition Yposition Zposition Xrotation Yrotation Zrotation
			JOINT Junyuan_V1:Solving:LeftFoot
			{
				OFFSET 0.000000 36.488441 -0.000006
				CHANNELS 6 Xposition Yposition Zposition Xrotation Yrotation Zrotation
				JOINT Junyuan_V1:Solving:LeftForeFoot
				{
					OFFSET 0.000000 3.967834 -0.000000
					CHANNELS 6 Xposition Yposition Zposition Xrotation Yrotation Zrotation
					JOINT Junyuan_V1:Solving:LeftToeBase
					{
						OFFSET 0.000000 0.000000 -15.539299
						CHANNELS 6 Xposition Yposition Zposition Xrotation Yrotation Zrotation
						JOINT Junyuan_V1:Solving:LeftToeBaseEnd
						{
							OFFSET 0.000000 0.000000 -3.974441
							CHANNELS 6 Xposition Yposition Zposition Xrotation Yrotation Zrotation
							End Site
							{
								OFFSET 0.000000 -3.974442 0.000000
							}
						}
					}
				}
			}
		}
	}
}
MOTION
Frames: 4
Frame Time: 0.041667
39.399086 -17.929985 -68.300255 47.038936 -166.650414 -3.256072 0.000010 -11.180193 2.228552 18.184375 0.149017 -0.575855 -0.000000 -8.682993 1.531042 11.187122 -0.028258 -0.406664 0.000002 -8.783396 0.768457 11.033998 -4.044981 -0.407556 0.000010 -8.816939 -0.000002 -6.540243 -0.303917 -0.792718 0.000014 -11.336071 -1.133626 -32.992597 -7.255401 2.657847 -0.000006 -7.643241 -0.668687 5.766440 -0.274267 -0.004927 0.000001 -7.555875 -1.332314 3.644279 -0.030939 0.038958 -0.000003 -9.728081 0.000002 0.000003 -0.000000 0.000000 0.000008 -8.097198 -5.270920 0.000006 6.740605 21.346254 -20.762381 -0.000016 0.000006 -67.259414 -22.443344 -81.673374 -29.048943 0.000006 0.000007 -34.395617 -12.525285 -8.444977 -22.031233 -0.000032 0.000003 1.018994 -4.337770 13.233437 -3.579271 2.890206 -2.661498 0.000005 -0.000003 -0.000003 -9.544699 0.000000 0.061183 0.000002 0.000003 -0.000007 0.000012 -8.097210 -5.270923 -0.000001 -10.186424 -15.641055 20.762400 -0.000017 -0.000000 -65.140545 33.993315 79.363800 29.048956 -0.000010 -0.000008 -44.920190 8.264729 8.157587 22.031242 -0.000013 -0.000016 0.259328 1.471563 -9.995996 3.579265 2.890205 -2.661490 0.000005 0.000002 -0.000006 9.544700 -0.000006 0.061186 0.000002 -0.000001 -0.000002 -10.825160 0.000010 -0.000011 -103.514058 33.128764 27.126670 0.000001 43.678432 0.000010 74.203653 0.000004 0.000004 0.000000 36.488434 -0.000003 -16.008824 13.125669 -0.019032 0.000005 3.967827 -0.000002 0.000001 -0.000001 -0.000001 0.000013 0.000004 -15.539296 12.276825 -0.000006 0.000001 -0.000002 -0.000007 -3.486975 0.000002 -0.000003 0.000001 10.825172 0.000012 -0.000004 -103.201331 -13.830885 -44.273331 0.000001 43.678448 0.000012 77.275360 0.000007 0.000003 -0.000006 36.488441 -0.000004 -13.923474 1.578360 9.167394 -0.000003 3.967827 -0.000003 -0.000002 0.000003 -0.000001 -0.000001 -0.000000 -15.539305 -2.596342 0.000001 -0.000000 -0.000006 -0.000008 -3.974454 -0.000000 0.000005 -0.000001 
39.334812 -17.853523 -67.511711 47.062732 -166.428993 -3.152605 0.000007 -11.180218 2.228567 18.199334 0.118128 -0.484196 -0.000006 -8.682994 1.531040 11.501479 -0.067953 -0.306147 0.000006 -8.783381 0.768435 11.215705 -4.317302 -0.683354 -0.000002 -8.816941 -0.000013 -6.715636 -0.417124 -1.084891 0.000008 -11.336066 -1.133583 -33.265074 -7.338768 3.041347 -0.000005 -7.643251 -0.668706 5.644825 -0.313845 0.059269 -0.000002 -7.555879 -1.332310 3.670995 -0.034961 0.055674 -0.000007 -9.728096 0.000001 -0.000002 -0.000000 -0.000001 0.000004 -8.097183 -5.270907 0.000003 6.704483 21.747476 -20.762390 -0.000015 -0.000008 -68.358698 -22.924792 -81.671372 -29.048933 -0.000006 -0.000001 -34.928269 -11.512407 -7.934480 -22.031219 -0.000009 -0.000016 1.112224 -4.618395 13.556259 -3.579267 2.890208 -2.661491 0.000005 -0.000005 0.000004 -9.544679 -0.000022 0.061191 0.000004 0.000001 -0.000001 0.000002 -8.097187 -5.270908 -0.000003 -10.035204 -15.390107 20.762400 -0.000019 -0.000000 -65.664332 33.790571 79.409152 29.048954 -0.000020 -0.000015 -45.835241 8.070952 8.225306 22.031235 -0.000015 -0.000007 0.248286 1.403467 -10.033897 3.579253 2.890208 -2.661501 0.000008 0.000009 -0.000001 9.544694 -0.000011 0.061170 0.000003 0.000001 0.000001 -10.825157 -0.000012 0.000007 -104.371670 32.804511 27.241151 -0.000007 43.678444 -0.000003 75.679937 0.000002 -0.000001 0.000009 36.488426 -0.000003 -16.560273 13.473748 0.093645 -0.000000 3.967834 0.000000 0.000000 0.000002 0.000001 -0.000003 -0.000006 -15.539292 12.472796 -0.000001 -0.000000 -0.000001 0.000001 -3.486967 0.000003 0.000000 -0.000000 10.825171 -0.000005 0.000007 -103.626476 -12.783491 -44.282428 0.000001 43.678429 0.000012 78.876876 -0.000002 0.000003 -0.000000 36.488441 -0.000010 -14.952049 1.119239 9.225017 -0.000006 3.967835 -0.000001 -0.000000 0.000003 0.000001 -0.000002 -0.000009 -15.539307 -2.217259 0.000004 0.000001 -0.000003 -0.000008 -3.974442 0.000000 0.000006 -0.000001 
39.262192 -17.770027 -66.742332 46.999973 -166.259222 -3.112099 0.000004 -11.180206 2.228563 18.280709 0.097145 -0.573147 0.000008 -8.682983 1.531034 11.824037 -0.053702 -0.359741 0.000001 -8.783409 0.768461 11.111682 -4.266698 -0.616005 -0.000003 -8.816939 -0.000011 -6.985051 -0.357318 -0.914350 0.000009 -11.336079 -1.133599 -33.489896 -7.457565 2.779679 0.000002 -7.643244 -0.668700 5.801460 -0.384456 0.102205 0.000004 -7.555889 -1.332305 3.580120 -0.039528 0.059816 -0.000000 -9.728081 -0.000001 -0.000003 0.000000 0.000001 0.000004 -8.097202 -5.270909 0.000005 6.143120 21.683778 -20.762384 -0.000006 0.000004 -69.101372 -23.275283 -81.790703 -29.048948 -0.000016 0.000002 -35.380452 -10.596429 -7.440094 -22.031235 -0.000012 -0.000004 1.225443 -4.906057 14.043117 -3.579271 2.890209 -2.661497 0.000004 -0.000003 -0.000002 -9.544705 -0.000025 0.061186 0.000002 0.000004 -0.000006 0.000008 -8.097210 -5.270912 0.000000 -10.198472 -15.471386 20.762398 -0.000003 0.000001 -65.949131 33.898727 79.290307 29.048950 -0.000005 -0.000007 -46.834354 7.807049 8.240607 22.031242 -0.000004 -0.000003 0.239803 1.368451 -9.940801 3.579246 2.890209 -2.661504 0.000007 0.000000 -0.000000 9.544691 -0.000004 0.061182 0.000003 -0.000002 -0.000003 -10.825171 -0.000006 -0.000007 -105.279006 32.397831 27.322398 -0.000003 43.678436 0.000004 77.084299 0.000002 -0.000000 0.000011 36.488411 -0.000003 -17.113353 13.866438 0.231547 -0.000007 3.967819 0.000001 0.000001 0.000005 -0.000000 0.000000 -0.000002 -15.539290 12.746921 0.000002 0.000001 0.000003 -0.000006 -3.486962 0.000005 -0.000004 -0.000000 10.825171 -0.000005 -0.000010 -104.082459 -11.886191 -44.189213 -0.000003 43.678436 0.000005 80.337682 0.000001 0.000004 0.000001 36.488434 -0.000007 -16.093036 0.523567 9.199162 0.000001 3.967827 0.000013 -0.000000 -0.000001 0.000000 0.000004 -0.000006 -15.539289 -1.751404 -0.000001 0.000000 0.000003 -0.000008 -3.974438 0.000000 -0.000001 0.000000 
39.176136 -17.684107 -65.985275 46.898394 -166.119818 -3.109861 -0.000003 -11.180210 2.228571 18.287154 0.085717 -0.582993 -0.000003 -8.682996 1.531046 12.079814 -0.059324 -0.339019 -0.000001 -8.783395 0.768460 11.062584 -4.317997 -0.688036 -0.000000 -8.816949 -0.000011 -7.177226 -0.378708 -0.951711 -0.000007 -11.336072 -1.133620 -33.580799 -7.568953 2.824051 0.000002 -7.643254 -0.668695 5.843442 -0.413881 0.134572 0.000003 -7.555871 -1.332309 3.470328 -0.041493 0.063194 0.000001 -9.728073 -0.000017 -0.000002 -0.000000 0.000001 0.000003 -8.097198 -5.270931 0.000006 5.793050 21.811471 -20.762400 -0.000009 -0.000006 -69.904193 -23.737185 -81.888634 -29.048954 -0.000014 0.000010 -36.037215 -9.643238 -6.948431 -22.031254 0.000009 0.000004 1.344773 -5.197660 14.527589 -3.579263 2.890201 -2.661499 -0.000001 -0.000005 0.000008 -9.544679 -0.000011 0.061187 -0.000000 -0.000001 -0.000002 0.000003 -8.097210 -5.270933 -0.000003 -10.178870 -15.390914 20.762405 0.000007 0.000005 -66.289035 33.991106 79.271927 29.048954 -0.000012 -0.000006 -47.595173 7.530120 8.165668 22.031235 -0.000017 0.000013 0.255307 1.486488 -9.746985 3.579256 2.890210 -2.661482 -0.000003 0.000015 -0.000006 9.544678 -0.000010 0.061191 -0.000000 -0.000001 -0.000000 -10.825171 -0.000002 0.000008 -106.186315 31.915944 27.367497 0.000000 43.678448 0.000001 78.438056 0.000001 -0.000000 -0.000005 36.488434 -0.000016 -17.658167 14.257030 0.339947 -0.000012 3.967827 0.000003 0.000001 0.000006 -0.000000 0.000002 0.000017 -15.539310 13.020417 -0.000002 0.000001 -0.000002 -0.000015 -3.486969 0.000001 -0.000001 -0.000000 10.825171 -0.000001 0.000006 -104.621375 -11.134673 -44.080255 -0.000004 43.678463 0.000000 81.742584 0.000009 -0.000001 0.000002 36.488434 -0.000005 -17.254511 -0.112710 8.980294 0.000001 3.967827 0.000001 -0.000001 -0.000003 0.000000 0.000002 -0.000010 -15.539294 -1.222017 0.000002 -0.000000 0.000003 -0.000008 -3.974444 -0.000000 0.000003 -0.000000 
